<svg version="1.1" xmlns="http://www.w3.org/2000/svg" xmlns:xlink="http://www.w3.org/1999/xlink" width="206.59163" height="264.71384" viewBox="0,0,206.59163,264.71384"><g transform="translate(-132.16545,-64.74964)"><g data-paper-data="{&quot;isPaintingLayer&quot;:true}" stroke="none" stroke-linecap="butt" stroke-linejoin="miter" stroke-miterlimit="10" stroke-dasharray="" stroke-dashoffset="0" style="mix-blend-mode: normal"><path d="M143.58023,274.42889c0,-13.20922 41.93506,-23.91741 93.66458,-23.91741c51.72952,0 93.66458,10.70819 93.66458,23.91741c0,13.20922 -41.93506,23.9174 -93.66458,23.9174c-51.72952,0 -93.66458,-10.70818 -93.66458,-23.9174z" fill-opacity="0.26667" fill="#000000" fill-rule="nonzero" stroke-width="0.97357"/><g fill-rule="nonzero" stroke-width="1"><path d="M231.22546,258.64162l0.4045,-0.01445c0.05778,-0.2793 0.25041,-0.58749 0.57786,-0.92458c0.32745,-0.34672 0.26485,2.03214 -0.1878,7.13656c-0.52007,4.6325 -0.81863,6.78985 -0.89568,6.47202l-0.1878,0.60676l-0.26004,0.63565c-0.82826,1.90693 -2.02732,3.78016 -3.59717,5.61968c-1.37723,1.63727 -3.26009,3.52012 -5.64857,5.64857l-3.19267,2.4848c-0.28893,0.22152 -0.72232,0.57304 -1.30018,1.0546c-0.53933,0.41413 -1.00644,0.70306 -1.40131,0.86678l-0.11557,0.02889l-0.05779,0.01445c-1.91656,0.78011 -4.14132,1.31463 -6.67427,1.60356l-6.89097,0.26003c-5.83638,-0.08668 -10.80597,-0.39968 -14.90877,-0.93902l-8.16226,-1.30018l-8.14781,-1.53133c-2.66779,-0.48155 -4.95514,-1.0594 -6.86208,-1.73357c-2.39811,-0.82826 -4.49767,-1.8973 -6.29866,-3.20712c-0.26003,-0.18299 -0.33709,-0.39969 -0.23114,-0.65009c-0.0289,-0.78011 -0.00482,-1.69987 0.07223,-2.75928l0.20225,-2.91818c0.07705,-1.30982 0.11075,-2.22958 0.10112,-2.75928c0,-1.04014 -0.08186,-1.95028 -0.24559,-2.73039c-0.08668,-0.33709 0.00963,-0.57785 0.28893,-0.72232c-0.0289,-0.14447 0.00963,-0.25522 0.11557,-0.33227c0.04816,-0.14447 0.15891,-0.2167 0.33227,-0.2167h0.0289c1.25203,-0.70306 2.70631,-1.44464 4.36284,-2.22475l4.70955,-2.12364l3.17822,-1.41575l6.11086,-2.84596c0.05778,-0.03852 0.1252,-0.06742 0.20225,-0.08668c3.25528,-1.57948 6.19272,-3.12043 8.81235,-4.62287l0.96791,-0.54896c1.50243,-0.90532 2.61481,-1.67098 3.33714,-2.29699l1.56022,-1.51688l0.50563,-0.52007l1.73358,0.24559c-0.78974,1.04014 -1.80581,2.0514 -3.04821,3.03376c-0.69343,0.53933 -1.53615,1.12201 -2.52813,1.74802l-1.53133,0.92458c-2.53295,1.47354 -5.37409,2.98079 -8.52342,4.52175l-0.78011,0.36116l-4.18948,1.95028l-5.38854,2.41256l-4.5073,1.99362l-0.1878,0.07223l-3.92945,1.60356c1.55059,0.67417 3.34195,1.23759 5.37409,1.69024l6.44313,1.14127c5.14294,0.84753 10.17513,1.48317 15.09657,1.90693c5.28741,0.46229 10.37739,0.69824 15.26993,0.70788h7.00655c2.62926,-0.08668 4.95032,-0.31782 6.9632,-0.69343h0.08668c0.19262,-0.19262 0.48155,-0.37079 0.86679,-0.53452l1.09793,-0.47673l1.37241,-0.75122l1.0257,-0.66454l2.48479,-1.82026l2.36923,-2.06584c0.94384,-0.87642 1.81544,-1.75284 2.61481,-2.62926l1.48799,-1.77692l0.28893,-0.36116l1.22795,-1.79136c0.44303,-0.66454 0.82344,-1.20388 1.14127,-1.61801l0.01444,-0.39005l0.04334,-0.23115M229.15962,272.74138l0.50563,-1.17016l0.34671,-1.01126l0.34671,-1.17016l0.23114,-1.25684l0.10113,-1.4302c-0.0289,-1.44465 0.00963,-2.78336 0.11557,-4.01612c0.04816,-0.67417 0.12039,-1.31944 0.2167,-1.93583l-0.4334,0.66454l-0.89568,1.27129l-0.83789,1.04014l-0.72233,0.86679c-1.15572,1.34834 -2.36922,2.59555 -3.64051,3.74163l-1.51688,1.28574c-1.17498,0.9631 -2.28254,1.7721 -3.32269,2.42701c-0.98236,0.62601 -1.85878,1.10756 -2.62926,1.44465l-0.91013,0.4045l-0.6212,0.14447c0.04816,0.18299 -0.00481,0.30338 -0.15891,0.36116c0.16372,0.26004 0.28893,0.60194 0.37561,1.0257l0.1878,1.32907c0.14446,1.24239 0.20706,2.57629 0.1878,4.00168c-0.00963,1.63727 -0.04816,2.8604 -0.11557,3.6694l-0.28893,1.96472l0.28893,-0.23115l1.32908,-0.91012c1.58911,-1.18461 2.62926,-1.99843 3.12044,-2.44146c2.3307,-2.07066 4.05946,-3.73682 5.18628,-4.99848c1.58911,-1.79136 2.77372,-3.4816 3.55383,-5.07071M278.06095,249.94484l0.70788,-0.46229l0.47674,-0.33227l1.32907,0.9968l2.2392,1.69024l0.11557,0.07223l1.84915,1.2135l2.81707,1.70468l1.89249,1.0546l3.00487,1.56022l4.92625,2.48479l0.1878,0.11558l2.91819,1.50243l1.8347,0.95347l2.2681,1.32907c0.94383,0.57786 1.70468,1.01126 2.28254,1.30018c0.86679,0.45265 2.24402,1.07385 4.13169,1.86359l1.0257,0.50563c1.15572,0.59712 2.07548,1.22314 2.75928,1.87805c0.29856,0.30819 0.31782,0.62119 0.05779,0.93902c0,1.3676 0.07223,3.29861 0.2167,5.79304l0.04334,3.09155v1.18461l-0.13002,0.72233l0.01444,0.01445c0.23115,0.39487 0.16854,0.73677 -0.1878,1.0257c-1.51207,1.15572 -3.44308,2.16215 -5.79304,3.01932c-1.29055,0.45265 -3.38529,1.05941 -6.28422,1.82026c-5.03701,1.30982 -10.0114,2.1766 -14.92321,2.60036l-5.63413,0.34672c-3.22638,0.11557 -6.6502,0.11557 -10.27145,0l-7.94556,-0.30338l-7.71442,-0.65009l-0.73677,-0.01445c-2.54258,-1.90693 -4.77215,-3.68867 -6.68872,-5.3452c-2.29217,-1.95509 -4.07872,-3.75608 -5.35964,-5.40298l-0.60675,-0.809c-1.10756,-1.56985 -1.91175,-3.14933 -2.41257,-4.73845c-0.74158,-7.81073 -0.88605,-11.99057 -0.43339,-12.53954c0.43339,-0.5586 0.65491,-1.03052 0.66454,-1.41576l0.31782,-0.01445l-0.01445,0.17336c0.10594,0.08668 0.11557,0.1878 0.02889,0.30337l-0.04334,0.11557v0.47674l0.01445,0.13002l0.10112,0.809c0.14446,0.70306 0.4045,1.42057 0.78011,2.15252l0.52008,0.86679c0.60675,0.92458 1.42057,1.90212 2.44145,2.93264c0.50081,0.51044 1.04978,1.02089 1.6469,1.53133c1.91656,1.65653 3.92462,3.13007 6.02418,4.42062l0.24559,0.15891l1.08348,0.6212c0.73195,0.41413 1.48317,0.80419 2.25365,1.17016l0.02889,0.02889l11.67275,0.1878l2.93264,0.0289c5.61487,0.02889 10.54111,-0.0915 14.77875,-0.36117l7.06433,-0.57785c2.94708,-0.31783 5.59078,-0.69825 7.93111,-1.14128c1.84915,-0.34672 4.1654,-0.84753 6.94876,-1.50243l4.27616,-1.01126l1.40131,-0.33227l-1.27129,-0.85234c-0.5586,-0.31783 -1.20869,-0.64046 -1.95027,-0.96792l-0.70788,-0.31783c-1.95509,-0.84753 -3.106,-1.37241 -3.45271,-1.57466c-2.08029,-1.22314 -4.08835,-2.34996 -6.02418,-3.38047l-3.61162,-1.84915l-1.79136,-0.91013l-3.12044,-1.58911c-1.0883,-0.54897 -2.08029,-1.07867 -2.97597,-1.58911l-1.89249,-1.04015c-1.25203,-0.74158 -2.31625,-1.38686 -3.19267,-1.93582l-1.45909,-0.95347l-1.45909,-1.08348c-0.80901,-0.63565 -1.53132,-1.26647 -2.16697,-1.89249M206.79647,263.88569l0.02889,0.13002c-0.01926,0.1252 -0.08186,0.17817 -0.1878,0.15891c-1.2135,-0.10594 -2.88448,-0.35153 -5.01293,-0.73677l-4.99848,-0.82345c-3.00486,-0.38524 -6.42868,-0.59712 -10.27144,-0.63565c-0.09631,0 -0.14446,-0.04815 -0.14446,-0.14446c0,-0.09631 0.04816,-0.14928 0.14446,-0.15891l2.6437,-0.15891c2.34996,-0.04816 5.00811,0.1252 7.97446,0.52008l4.88291,0.70788c1.85878,0.30819 3.46715,0.65972 4.82512,1.0546l0.11557,0.08668M215.17543,285.1798c0.14446,-1.47354 0.22151,-2.94708 0.23114,-4.42062c0,-1.50243 -0.06741,-2.77373 -0.20225,-3.81387l-0.24559,-1.25684l-0.24559,-1.11238c-1.81062,0.4045 -3.96796,0.63083 -6.47202,0.67899l-7.10767,-0.08668l-15.63108,-0.73677c-5.65339,-0.52008 -10.74337,-1.1798 -15.26993,-1.97917l-6.35645,-1.06904c-2.09956,-0.46229 -3.84758,-1.08349 -5.24407,-1.8636c0.29856,1.50243 0.34671,3.36122 0.14446,5.57634l-0.37561,4.03056l-0.17336,1.50244c1.86841,1.15572 3.96315,2.11881 6.28422,2.88929c2.00324,0.64528 4.34839,1.20387 7.03543,1.67579l7.98891,1.47355c3.1686,0.58749 5.846,1.01126 8.03224,1.27129c4.37247,0.50081 9.11572,0.77047 14.22978,0.809l6.67427,-0.30337c2.39811,-0.2793 4.56027,-0.77048 6.48646,-1.47354l0.2167,-1.79136M263.12329,263.90013l-0.01445,-0.04334c-0.02889,-0.06741 -0.01445,-0.11076 0.04334,-0.13002c2.49442,-1.04014 5.85082,-1.72395 10.06919,-2.0514c2.08992,-0.13484 3.81387,-0.16373 5.17184,-0.08668l0.57786,0.05779l1.69024,0.2167c1.01126,0.19262 1.93101,0.46711 2.75928,0.82345c0.14447,0.05779 0.20225,0.15891 0.17336,0.30338c-0.03852,0.15409 -0.13002,0.20225 -0.27449,0.14447c-1.82025,-0.53933 -3.80424,-0.85234 -5.95195,-0.93902c-1.31944,-0.05779 -2.69186,-0.02889 -4.11724,0.08668c-2.22476,0.19262 -5.57153,0.74158 -10.0403,1.6469c-0.04816,0.01926 -0.07705,0.00963 -0.08668,-0.02889M255.11994,284.42858c-0.06742,-0.74158 -0.08186,-1.54095 -0.04334,-2.39812c0.04816,-1.60838 0.28893,-3.87166 0.72233,-6.78985h-0.07223c-0.1541,0 -0.25041,-0.05779 -0.28893,-0.17336c-1.56022,-0.78011 -3.04821,-1.62763 -4.46397,-2.54258c-2.04177,-1.32907 -3.92463,-2.80262 -5.64857,-4.42062l-0.82345,-0.78011c-1.33871,-1.34834 -2.34996,-2.61 -3.03376,-3.78498l-0.2167,-0.4045v0.85234c-0.0289,2.83151 -0.01444,4.56991 0.04334,5.21518c0.05778,0.70306 0.15891,1.39167 0.30337,2.06584l0.27448,1.0257c0.4045,1.31944 1.00163,2.5811 1.79137,3.78498l0.57786,0.8379c0.75122,1.00162 1.66616,2.02733 2.74483,3.0771c0.78011,0.77048 1.80581,1.69506 3.0771,2.77373l3.17822,2.49924c0.84752,0.66454 1.57948,1.24721 2.19586,1.74802v-0.02889l-0.23114,-1.54578l-0.08668,-1.01125M255.87115,284.9631l0.04334,0.37561c0.08668,0.6838 0.19743,1.22796 0.33227,1.63245l0.20225,0.59231l0.04334,0.15891l7.51217,0.34672l7.93111,0.41895c4.13169,0.1252 7.87815,0.11075 11.23936,-0.04334l4.3195,-0.28893c4.9407,-0.42377 9.90546,-1.28574 14.89432,-2.58592c2.54258,-0.66454 4.56509,-1.27129 6.06752,-1.82025c1.97435,-0.73196 3.72238,-1.58429 5.24408,-2.55703c-0.05779,-0.2793 -0.07704,-0.6212 -0.05778,-1.0257l0.07223,-1.06904v-0.14446l-0.07223,-3.12044c-0.06741,-2.19587 -0.05779,-3.98242 0.02889,-5.35964l-2.03696,0.53452c-3.88128,0.98236 -7.63737,1.80581 -11.26825,2.47035c-2.4559,0.46229 -5.21517,0.84271 -8.27783,1.14127l-6.19754,0.52008l-11.70165,0.50563c-6.32756,0.10594 -12.28432,-0.03371 -17.87029,-0.41895c-0.33709,3.00486 -0.51526,5.27297 -0.53452,6.80429c-0.01926,1.19424 0.00962,2.17179 0.08668,2.93264" fill="#792c0f"/><path d="M177.93241,260.60634c1.62763,1.01126 4.17985,1.99843 7.65663,2.96153c6.07715,1.68542 12.38063,2.52814 18.91044,2.52814l6.55871,0.23114c4.08354,0 8.09484,-0.28893 12.03392,-0.86678l3.92944,-0.65009c-0.79937,0.87642 -1.67097,1.75284 -2.61481,2.62926l-2.36922,2.06584l-2.48479,1.82026l-1.0257,0.66454c-0.9631,0.30819 -2.08029,0.5586 -3.35158,0.75122c-2.15734,0.32745 -5.30185,0.49118 -9.43355,0.49118l-13.26187,-0.60675l-9.72248,-0.66454c-4.51693,-0.4334 -8.31154,-0.87643 -11.38382,-1.32908c-5.81712,-0.8379 -8.72567,-1.7095 -8.72567,-2.61481c0,-0.20225 0.13965,-0.43339 0.41895,-0.69343l4.5073,-1.99362l5.38854,-2.41256l4.18948,-1.95028l0.78011,-0.36116M288.23127,256.85025c0.89568,0.51044 1.88767,1.04015 2.97597,1.58911l3.12044,1.58911l1.79136,0.91013l3.61162,1.84915c1.93583,1.03051 3.94389,2.15734 6.02418,3.38047c0.34672,0.20225 1.49762,0.72714 3.45271,1.57466c0.38524,0.4334 0.59231,0.87643 0.6212,1.32908c-4.51693,1.11719 -9.81879,2.02732 -15.90557,2.73038c-9.59246,1.10757 -21.13038,1.71914 -34.61376,1.83471l-4.40617,0.01444c-0.31782,0 -0.66935,-0.08667 -1.0546,-0.26003l-1.08348,-0.6212l-0.24559,-0.15891c-2.09956,-1.29055 -4.10762,-2.76409 -6.02418,-4.42062c-0.59712,-0.51044 -1.14609,-1.02089 -1.6469,-1.53133c0.53933,-0.29856 1.72876,-0.52489 3.56828,-0.67898l15.73221,-1.2135c4.09317,-0.39487 7.78666,-1.04014 11.08045,-1.93583l2.13807,-0.63565c2.14771,0.08668 4.1317,0.39969 5.95195,0.93902c0.14447,0.05779 0.23596,0.00963 0.27449,-0.14447c0.02889,-0.14447 -0.02889,-0.24559 -0.17336,-0.30338c-0.82826,-0.35634 -1.74802,-0.63083 -2.75928,-0.82345l0.95346,0.07223c1.26166,0.14447 2.80743,0.41895 4.63732,0.82345c-0.66454,-0.45265 -2.15252,-0.91494 -4.46396,-1.38686l-1.4302,-0.26004l2.51369,-1.09794c1.18461,-0.57786 2.32588,-1.20869 3.42381,-1.89249c0.66454,-0.39487 1.30982,-0.81863 1.93583,-1.27129" fill="#ffa720"/><path d="M206.79647,263.88569l-0.11557,-0.08668c-1.35797,-0.39487 -2.96634,-0.7464 -4.82512,-1.0546l-4.88291,-0.70788c-2.96634,-0.39487 -5.62449,-0.56823 -7.97446,-0.52008h-1.01125h-1.97917l2.25365,-0.36116c2.0514,-0.41413 3.60199,-0.6212 4.65176,-0.6212c3.83313,0 7.25214,0.36597 10.257,1.09793c2.93745,0.71269 5.59079,1.79618 7.96001,3.25046h-0.14447c-1.26166,-0.33709 -2.65815,-0.66935 -4.18948,-0.99681M158.40077,279.12672l0.37561,-4.03056c0.20225,-2.21513 0.1541,-4.07391 -0.14446,-5.57634c1.39649,0.78011 3.14451,1.40131 5.24407,1.8636l6.35645,1.06904c4.52657,0.79937 9.61654,1.45909 15.26993,1.97917l15.63108,0.73677l7.10767,0.08668c2.50405,-0.04816 4.66139,-0.27449 6.47202,-0.67899l0.24559,1.11238l0.24559,1.25684c0.13484,1.04014 0.20225,2.31144 0.20225,3.81387c-0.00963,1.47354 -0.08668,2.94708 -0.23114,4.42062c-2.26328,0.5586 -5.35001,1.05941 -9.26019,1.50243c-4.20874,0.47192 -6.32274,0.49118 -6.342,0.05779v-0.01445c-6.97284,-0.00963 -15.45292,-0.98236 -25.44025,-2.91819c-9.02424,-1.76247 -14.2683,-3.32269 -15.73221,-4.68066M199.57323,286.74002c0,0.22152 -0.03852,0.26967 -0.11558,0.14446c-0.04816,-0.08668 -0.00963,-0.13483 0.11558,-0.14446M263.12329,263.90013l-2.54258,0.70788h-0.15891c1.56985,-1.11719 3.94389,-2.06585 7.12211,-2.84596c3.02413,-0.72233 5.86046,-1.08348 8.50898,-1.08348c1.16535,0 2.60037,0.14447 4.30505,0.4334l1.4302,0.26004c2.31144,0.47192 3.79942,0.93421 4.46396,1.38686c-1.82988,-0.4045 -3.37566,-0.67899 -4.63732,-0.82345l-0.95346,-0.07223l-1.69024,-0.2167l-0.57786,-0.05779c-1.35797,-0.07705 -3.08192,-0.04816 -5.17184,0.08668c-4.21837,0.32745 -7.57477,1.01126 -10.06919,2.0514c-0.05779,0.01926 -0.07223,0.06261 -0.04334,0.13002l0.01445,0.04334M313.71485,279.09783c-1.05941,0.47192 -2.13808,0.92457 -3.23601,1.35797l-0.08668,0.02889c-3.25527,1.27129 -6.69353,2.39811 -10.31478,3.38047c-5.96158,1.618 -11.06119,2.42701 -15.29882,2.42701h-0.23114l-7.33881,-0.08668l-7.23768,0.23115h0.14447l-0.14447,0.02889c0,0.33709 -0.01926,0.38524 -0.05778,0.14447c-0.01926,-0.06741 0,-0.11557 0.05778,-0.14447v-0.02889l-7.65663,-0.26004c-3.91018,-0.26967 -6.05789,-0.67417 -6.44313,-1.2135c-0.07705,-0.76085 -0.10594,-1.7384 -0.08668,-2.93264c0.01926,-1.53132 0.19743,-3.79943 0.53452,-6.80429c5.58597,0.38524 11.54273,0.52489 17.87029,0.41895l11.70165,-0.50563l6.19754,-0.52008c3.06266,-0.29856 5.82193,-0.67898 8.27783,-1.14127c3.63088,-0.66454 7.38696,-1.48799 11.26825,-2.47035l2.03696,-0.53452c-0.08668,1.37723 -0.0963,3.16378 -0.02889,5.35965l0.07223,3.12044v0.14446" fill="#f5881d"/><path d="M193.5635,250.37823v-0.0289l0.10113,0.05779l0.93902,0.52007l0.39005,0.20225c2.8893,1.47354 6.13493,2.71594 9.73692,3.72719l1.63245,0.43339c3.1397,0.78974 6.87653,1.50725 11.21047,2.15253l8.03224,0.82344l5.64857,0.17336l-0.0289,0.20225l-0.04334,0.23115l-0.01444,0.39005c-0.31782,0.41413 -0.69824,0.95347 -1.14127,1.61801l-1.22795,1.79136l-0.28893,0.36116l-1.48799,1.77692l-3.92944,0.65009c-3.93908,0.57786 -7.95038,0.86678 -12.03392,0.86678l-6.55871,-0.23114c-6.52981,0 -12.83329,-0.84271 -18.91044,-2.52814c-3.47679,-0.9631 -6.029,-1.95027 -7.65663,-2.96153c3.14933,-1.54096 5.99047,-3.0482 8.52342,-4.52175l1.53133,-0.92458c0.99199,-0.62601 1.8347,-1.20869 2.52813,-1.74802c1.24239,-0.98236 2.25847,-1.99362 3.04821,-3.03376M215.96998,284.42858c0.06742,-0.80901 0.10594,-2.03213 0.11557,-3.6694c0.01926,-1.42539 -0.04334,-2.75928 -0.1878,-4.00168l-0.1878,-1.32907c-0.08668,-0.42377 -0.21188,-0.76567 -0.37561,-1.0257c0.1541,-0.05779 0.20707,-0.17817 0.15891,-0.36116l0.6212,-0.14447l0.91013,-0.4045c0.77048,-0.33709 1.6469,-0.81863 2.62926,-1.44465c1.04014,-0.6549 2.14771,-1.46391 3.32269,-2.42701l1.51688,-1.28574c1.27129,-1.14609 2.48479,-2.39329 3.64051,-3.74163l0.72233,-0.86679l0.83789,-1.04014l0.89568,-1.27129l0.4334,-0.66454c-0.09631,0.61638 -0.16854,1.26166 -0.2167,1.93583c-0.10594,1.23276 -0.14447,2.57147 -0.11557,4.01612l-0.10113,1.4302l-0.23114,1.25684l-0.34671,1.17016l-0.34671,1.01126l-0.50563,1.17016c-1.28092,2.14771 -3.19749,4.31468 -5.7497,6.50092c-2.32107,1.97435 -4.80105,3.70312 -7.43994,5.18628M241.02018,258.6994l0.01444,-0.15891c5.81712,-0.00963 11.7209,-0.51526 17.71138,-1.51688l0.49118,-0.08668c4.81549,-0.81863 9.05312,-2.05622 12.7129,-3.71275c0.9631,-0.42377 1.90693,-0.89087 2.83151,-1.40131l1.17016,-0.66454l2.03696,-1.30018l0.07223,0.08668c0.63565,0.62601 1.35796,1.25684 2.16697,1.89249l1.45909,1.08348l1.45909,0.95347c0.87642,0.54897 1.94064,1.19424 3.19267,1.93582l1.89249,1.04015c-0.62601,0.45265 -1.27129,0.87642 -1.93583,1.27129c-1.09793,0.6838 -2.2392,1.31463 -3.42381,1.89249l-2.51369,1.09794c-1.70468,-0.28893 -3.1397,-0.4334 -4.30505,-0.4334c-2.64852,0 -5.48485,0.36116 -8.50898,1.08348c-3.17822,0.78011 -5.55226,1.72876 -7.12211,2.84596h0.15891l2.54258,-0.70788c0.00963,0.03852 0.03852,0.04815 0.08668,0.02889c4.46877,-0.90531 7.81554,-1.45428 10.0403,-1.6469c1.42539,-0.11557 2.7978,-0.14447 4.11724,-0.08668l-2.13807,0.63565c-3.29379,0.89568 -6.98728,1.54095 -11.08045,1.93583l-15.73221,1.2135c-1.83952,0.15409 -3.02895,0.38042 -3.56828,0.67898c-1.02088,-1.03051 -1.8347,-2.00806 -2.44145,-2.93264l-0.52008,-0.86679c-0.37561,-0.73196 -0.63564,-1.44946 -0.78011,-2.15252l-0.10112,-0.809l-0.01445,-0.13002v-0.47674l0.04334,-0.11557c0.08668,-0.11557 0.07705,-0.21669 -0.02889,-0.30337l0.01445,-0.17336M188.99841,261.51647l-2.6437,0.15891c-0.09631,0.00963 -0.14446,0.0626 -0.14446,0.15891c0,0.09631 0.04816,0.14446 0.14446,0.14446c3.84277,0.03852 7.26658,0.25041 10.27145,0.63565l4.99848,0.82345c2.12845,0.38524 3.79942,0.63083 5.01293,0.73677c0.10594,0.01926 0.16854,-0.0337 0.1878,-0.15891l-0.02889,-0.13002c1.53133,0.32745 2.92782,0.65972 4.18948,0.99681h0.14447c-2.36922,-1.45428 -5.02256,-2.53777 -7.96001,-3.25046c-3.00486,-0.73196 -6.42387,-1.09793 -10.257,-1.09793c-1.04978,0 -2.60036,0.20707 -4.65176,0.6212l-2.25365,0.36116h1.97917h1.01125M241.87252,272.29354l-0.27448,-1.0257c-0.14446,-0.67417 -0.24559,-1.36278 -0.30337,-2.06584c-0.05778,-0.64528 -0.07224,-2.38367 -0.04334,-5.21518v-0.85234l0.2167,0.4045c0.6838,1.17498 1.69505,2.43664 3.03376,3.78498l0.82345,0.78011c1.72394,1.618 3.6068,3.09154 5.64857,4.42062c1.41575,0.91494 2.90375,1.76247 4.46397,2.54258c0.03852,0.11557 0.13483,0.17336 0.28893,0.17336h0.07223c-0.43339,2.91819 -0.67417,5.18147 -0.72233,6.78985c-0.03852,0.85716 -0.02408,1.65653 0.04334,2.39812c-2.27292,-1.22314 -4.56027,-2.84596 -6.86208,-4.86847c-1.73358,-1.51207 -3.23119,-3.04339 -4.49285,-4.59398c-0.70306,-0.87642 -1.3339,-1.76729 -1.89249,-2.6726" fill="#d77223"/><path d="M309.20755,267.74289l0.70788,0.31783c0.74158,0.32745 1.39168,0.65009 1.95027,0.96792l1.27129,0.85234l-1.40131,0.33227l-4.27616,1.01126c-2.78335,0.6549 -5.0996,1.15571 -6.94876,1.50243c-2.34033,0.44302 -4.98403,0.82345 -7.93111,1.14128l-7.06433,0.57785c-4.23764,0.26967 -9.16388,0.39006 -14.77875,0.36117l-2.93264,-0.0289l-11.67275,-0.1878l-0.02889,-0.02889c-0.77048,-0.36597 -1.5217,-0.75603 -2.25365,-1.17016c0.38524,0.17336 0.73677,0.26003 1.0546,0.26003l4.40617,-0.01444c13.48338,-0.11557 25.0213,-0.72714 34.61376,-1.83471c6.08679,-0.70306 11.38864,-1.61318 15.90558,-2.73038c-0.02889,-0.45265 -0.23596,-0.89569 -0.6212,-1.32908M218.52701,271.99016l-1.37241,0.75122l-1.09793,0.47673c-0.38524,0.16372 -0.67417,0.3419 -0.86679,0.53452h-0.08668c-2.01288,0.37561 -4.33394,0.60675 -6.9632,0.69343h-7.00655c-4.89254,-0.00963 -9.98252,-0.24559 -15.26992,-0.70788c-4.92144,-0.42377 -9.95362,-1.05941 -15.09657,-1.90693l-6.44313,-1.14127c-2.03214,-0.45265 -3.8235,-1.01607 -5.37409,-1.69024l3.92945,-1.60356l0.1878,-0.07223c-0.2793,0.26004 -0.41895,0.49118 -0.41895,0.69343c0,0.90531 2.90856,1.77691 8.72567,2.61481c3.07228,0.45265 6.86689,0.89569 11.38382,1.32908l9.72248,0.66454l13.26187,0.60675c4.1317,0 7.27621,-0.16372 9.43355,-0.49118c1.27129,-0.19262 2.38848,-0.44303 3.35158,-0.75122" fill="#f1e025"/><path d="M229.15962,272.74138c-0.78011,1.58911 -1.96472,3.27935 -3.55383,5.07071c-1.12682,1.26166 -2.85558,2.92782 -5.18628,4.99848c-0.49118,0.44302 -1.53133,1.25684 -3.12044,2.44146l-1.32908,0.91012l-0.28893,0.23115l0.28893,-1.96472c2.63889,-1.48317 5.11887,-3.21193 7.43994,-5.18628c2.55221,-2.18624 4.46878,-4.35321 5.7497,-6.50092M215.17543,285.1798l-0.2167,1.79136c-1.9262,0.70306 -4.08835,1.19424 -6.48646,1.47354l-6.67427,0.30337c-5.11406,-0.03852 -9.85731,-0.30819 -14.22978,-0.809c-2.18624,-0.26004 -4.86364,-0.6838 -8.03224,-1.27129l-7.98891,-1.47355c-2.68705,-0.47192 -5.03219,-1.03051 -7.03543,-1.67579c-2.32107,-0.77048 -4.41581,-1.73357 -6.28422,-2.88929l0.17336,-1.50244c1.46391,1.35797 6.70798,2.91819 15.73221,4.68066c9.98733,1.93583 18.46741,2.90856 25.44025,2.91819v0.01445c0.01926,0.4334 2.13326,0.41413 6.342,-0.05779c3.91018,-0.44302 6.99691,-0.94384 9.26019,-1.50243M199.57323,286.74002c-0.1252,0.00963 -0.16373,0.05778 -0.11558,0.14446c0.07705,0.1252 0.11558,0.07705 0.11558,-0.14446M255.11994,284.42858l0.08668,1.01125l0.23114,1.54578v0.02889c-0.61639,-0.50081 -1.34834,-1.08348 -2.19586,-1.74802l-3.17822,-2.49924c-1.27129,-1.07867 -2.29699,-2.00324 -3.0771,-2.77373c-1.07867,-1.04978 -1.99362,-2.07548 -2.74483,-3.0771l-0.57786,-0.8379c-0.78974,-1.20387 -1.38687,-2.46553 -1.79137,-3.78498c0.55859,0.90531 1.18943,1.79618 1.89249,2.6726c1.26166,1.55059 2.75928,3.08191 4.49285,4.59398c2.30181,2.02251 4.58916,3.64533 6.86208,4.86847M313.71485,279.09783l-0.07223,1.06904c-0.01926,0.4045 0,0.7464 0.05778,1.0257c-1.5217,0.97273 -3.26972,1.82507 -5.24408,2.55703c-1.50243,0.54897 -3.52494,1.15571 -6.06752,1.82025c-4.98885,1.30018 -9.95362,2.16216 -14.89432,2.58592l-4.3195,0.28893c-3.36122,0.15409 -7.10767,0.16854 -11.23936,0.04334l-7.93111,-0.41895l-7.51217,-0.34672l-0.04334,-0.15891l-0.20225,-0.59231c-0.13484,-0.4045 -0.24559,-0.94865 -0.33227,-1.63245l-0.04334,-0.37561c0.38524,0.53933 2.53295,0.94383 6.44313,1.2135l7.65663,0.26004v0.02889c-0.05779,0.02889 -0.07704,0.07705 -0.05778,0.14447c0.03852,0.24077 0.05778,0.19262 0.05778,-0.14447l0.14447,-0.02889h-0.14447l7.23768,-0.23115l7.33881,0.08668h0.23114c4.23764,0 9.33724,-0.80901 15.29882,-2.42701c3.62125,-0.98236 7.05951,-2.10918 10.31478,-3.38047l0.08668,-0.02889c1.09793,-0.4334 2.1766,-0.88605 3.23601,-1.35797" fill="#d8af60"/></g><path d="M252.76614,74.84823c4.55094,4.85121 8.9671,11.9096 13.16791,21.31122c2.70056,6.10096 5.9519,14.56736 9.70267,25.46951l1.55936,4.67807l4.15829,11.95507v0.17327l0.17298,0.34652l0.34652,0.17326l1.90589,2.42567l23.91015,29.28127l9.5294,12.47486l0.34653,0.34652c4.85122,6.60131 9.04743,12.93439 12.64812,18.88556l3.46524,5.71764l1.90588,3.98503l0.51951,0.51978h-1.55936c-6.25096,-0.95022 -11.29596,-1.99173 -15.24705,-3.29197c-2.25041,-0.75014 -4.31403,-1.79526 -6.06417,-2.94546c-1.40051,-0.90019 -2.71131,-1.84522 -3.81176,-2.94545l-3.29198,-3.98503l-0.69305,-0.8663l-2.42566,-3.98503c-1.80038,-3.25063 -3.67077,-7.08442 -5.37112,-11.43529v-0.17326l-0.69305,-2.07914c-0.80028,-2.10043 -1.2863,-3.50817 -1.3861,-4.15829v2.07914c0.05007,1.25026 0.24285,2.68123 0.69305,4.33155c0.5001,2.10042 1.37545,4.45321 2.42567,7.10374l0.86631,2.25241c1.35028,3.15061 2.95094,6.109 4.85133,9.00962l3.46524,4.67807v0.17326c2.10598,4.71131 3.11872,9.95172 3.11872,15.59358v2.59893l-0.69305,6.41069c-1.85038,9.75194 -6.87221,16.76386 -15.07379,20.9647c-2.20046,1.05021 -5.18555,2.11854 -8.83636,3.11871h-0.51951l-0.17298,0.17327h-0.17299l-12.82138,2.07914l-17.67272,0.86631l5.37112,-1.90588c2.25046,-0.95022 4.38699,-1.96851 6.23743,-3.11872h0.17298l1.90588,-1.38609l1.73262,-1.55936l4.67808,-4.67807l4.33265,-6.06417c4.45087,-7.5015 6.58396,-16.35707 6.58396,-26.50908c0,-6.35129 -1.60072,-12.82726 -4.85134,-19.5786c-1.30027,-2.75058 -3.16711,-6.17165 -5.71764,-10.22246l-4.67807,-6.93048c-5.05099,-7.20144 -8.27561,-12.34294 -9.87594,-15.59357l-0.69304,-1.21284l-1.03958,-2.59893c-1.30021,-3.50073 -1.90588,-6.65203 -1.90588,-9.70267l-0.17298,-0.51978l1.55936,-1.55936l1.21283,-1.3861c1.00021,-1.25027 1.67884,-2.63475 2.07914,-3.98502c0.34985,-1.35027 0.56941,-2.758 0.51951,-4.15829c-0.09996,-1.35028 -1.31479,-2.97421 -3.46524,-5.02459l-6.06417,-5.37112c2.40044,-2.15045 3.71197,-4.94267 3.81177,-8.14332c0.10002,-3.35069 -1.64718,-7.47384 -5.19786,-12.47486c-3.50073,-5.00126 -6.77535,-7.66999 -9.87593,-7.97005c-3.10064,-0.30006 -5.4534,0.59828 -7.10374,2.59893c-1.05022,-0.8499 -2.82065,-1.28641 -5.37112,-1.38609c-2.60054,-0.15004 -5.75546,1.54688 -9.35615,5.19786c-3.60074,3.60073 -5.8338,7.26475 -6.58396,10.9155c-0.75015,3.55069 -0.75015,6.24296 0,8.14332c0.70009,1.90036 1.57555,3.1616 2.42567,3.81176l-1.38609,1.3861l-1.3861,1.3861l-3.11871,3.46523c-1.55021,1.75033 -2.03257,3.9834 -1.73262,6.58396c0.45003,2.1004 1.15217,3.79755 2.2524,5.19786c0.90019,1.45026 1.99177,2.83481 3.29198,3.98502l0.17298,0.17326l-0.17298,0.34653c-0.15003,2.95056 -0.94859,6.56821 -2.59893,10.56898l-0.34652,0.51978h0.17298l-1.03957,2.07915c-1.60028,3.35069 -4.89813,9.36754 -10.0492,18.01924l-2.2524,3.6385c-8.75175,15.35309 -13.04455,27.14383 -12.99465,35.34544c0,7.55153 1.69714,14.39367 5.19786,20.44491c1.30027,2.25044 2.8777,4.36031 4.67807,6.41069l2.59893,2.59893l2.42567,2.07915l4.85134,3.29197v0.17327l6.58395,2.77219l6.75722,2.2524h-0.69305l-8.14331,-0.51978l-9.52941,-0.69305l-2.25241,-0.34652l-11.26202,-1.21284h-0.69305l-1.55936,-0.17326l-0.86631,-0.17326c-9.0018,-1.05021 -15.69748,-3.88894 -20.09839,-8.48984c-2.10037,-2.15045 -3.62785,-4.67296 -4.67807,-7.62352l-0.69305,-2.07915c-0.89985,-3.05063 -1.38609,-6.10903 -1.38609,-9.00962c-0.05023,-3.15063 0.38616,-6.05905 1.38609,-9.00962c0.65036,-1.85038 1.54872,-3.74404 2.59893,-5.54438l2.42567,-4.33155l0.34652,-0.51979c3.01609,-5.38791 5.62162,-10.60668 7.79679,-15.24705l0.69305,-1.21284c1.30021,-3.00059 2.07526,-5.69636 2.42567,-7.79678l0.17298,-1.3861l0.17299,-0.51979l0.17298,-2.77219l-1.03957,3.29198l-0.86631,1.73262l-0.86631,2.25241c-1.9504,4.35088 -3.72438,7.57545 -5.0246,9.87593l-0.69304,1.55936l-4.33155,7.62352l-0.51951,0.34653l-10.22246,5.37112l-3.11871,1.73262l-11.95508,5.71764h-0.17298l0.17298,-1.03957l0.34653,-0.69305l2.07914,-5.71764l3.11871,-6.58396l3.63851,-6.75721l9.35614,-15.42032l0.34653,-0.51979l4.67807,-7.79678c3.80078,-6.45129 9.40488,-13.07379 16.80641,-19.92513c4.70097,-4.30083 9.18682,-9.46914 13.68769,-15.42031c2.15045,-4.851 3.97083,-9.2171 5.37112,-13.16791l0.51951,-1.90588c3.75072,-11.25224 6.83246,-19.49838 9.18289,-24.94972c4.75092,-11.00245 10.06571,-19.20212 15.76683,-24.6032c5.40112,-5.10102 11.24823,-7.74656 17.49946,-7.79678c5.25103,0.05026 10.22279,2.69577 15.07379,7.79679z" fill="#009900" fill-rule="evenodd" stroke-width="5.54438"/><path d="M253.6382,258.35582c0,-0.48206 2.07757,-0.87284 4.64039,-0.87284c2.56282,0 4.64039,0.39078 4.64039,0.87284c0,0.48206 -2.07757,0.87284 -4.64039,0.87284c-2.56282,0 -4.64039,-0.39078 -4.64039,-0.87284z" fill="#133618" fill-rule="nonzero" stroke-width="1"/><path d="M249.40071,121.97173l1.20025,-0.37508c0.70014,-0.35009 1.37528,-1.40029 2.02541,-3.15062c0.60013,-1.80036 0.15004,-4.60089 -1.35027,-8.40168l-2.92561,-6.60131l-3.15059,-3.37568l1.35027,1.20024c1.20025,1.10047 2.80053,3.22565 4.80094,6.37627c2.00041,3.10059 3.10053,5.87614 3.30068,8.32666l0.0749,0.90018c0.05001,2.65051 -1.05021,4.82593 -3.30068,6.5263l-0.29995,0.15009l-1.57533,-1.27527l-0.4502,-0.45009l0.29995,0.14992M223.82026,101.86777c-1.20025,1.05021 -2.4505,2.60078 -3.75077,4.65094l-2.25041,4.72594l-0.75016,4.65092c0,1.30023 0.25005,2.6505 0.75016,4.0508c0.45004,1.25029 1.00015,2.10042 1.65028,2.55051l-0.60007,0.45009l-0.52505,0.4501l-0.60007,0.4501l-0.0748,0.07496c-0.80016,-0.1 -1.40056,-0.62511 -1.80031,-1.57532c-0.59985,-0.85013 -0.9253,-2.40048 -0.9752,-4.65093c0,-2.15046 0.32501,-4.12583 0.9752,-5.92619c0.70009,-1.90035 1.87533,-3.90076 3.52567,-6.00119c1.70035,-2.15068 3.75078,-3.92554 6.15122,-5.32606l1.57532,-0.67514l-3.30063,2.10042M257.65192,158.95416c-1.60028,1.80036 -4.20081,3.82576 -7.80156,6.0762c-3.60069,2.25044 -8.72669,3.40079 -15.37806,3.45069c-6.65132,0.05004 -11.72732,-0.92515 -15.22804,-2.92557c-3.50072,-2.05039 -5.72613,-3.62571 -6.67632,-4.72596l0.2251,-0.45009v-0.075c1.65034,-3.85075 2.72556,-7.37644 3.22567,-10.57711c1.00015,0.90017 2.82558,1.80036 5.47607,2.70054c1.65034,0.65013 2.97562,1.05016 3.97577,1.20024l6.15127,1.0502h5.02598l5.25103,-0.60012c1.60033,-0.30006 3.1257,-0.75015 4.57595,-1.35027l3.30062,-1.50028l2.85059,-1.65035l2.25047,-1.65033c0.24999,3.4507 1.17524,7.12643 2.77551,11.02721M268.9786,248.52201l-5.02604,3.90078l-0.67514,0.45009l-0.1497,0.075c-2.10043,1.25027 -4.30089,2.30049 -6.60136,3.15063c-2.7005,0.99995 -5.55109,1.70061 -8.55171,2.10041h-0.15025l-6.75134,0.15004h-2.77552h-0.0748h-6.60131h-0.0749h-1.42529h-2.92561h-0.60007c-4.05083,-0.45009 -7.80155,-1.20024 -11.25227,-2.25045c-2.70055,-0.80018 -5.20101,-1.80036 -7.50149,-3.0006l-0.0748,-0.075l-4.05084,-2.40047c-1.90033,-1.25028 -3.62569,-2.65051 -5.17601,-4.20085l-0.75015,-0.75014l40.73313,1.80036l33.08162,-1.5003l-2.62555,2.5505" fill="#cccccc" fill-rule="evenodd" stroke-width="5.54438"/><path d="M249.10042,121.82162l-3.45071,-3.00059l-0.45021,-0.37508c-2.30042,-1.75033 -4.42586,-2.72549 -6.37626,-2.92559l-4.1258,-0.30006l-3.82579,0.37508c-1.75036,0.20006 -3.8758,1.22522 -6.37626,3.07561l-5.02598,3.82577c-0.65019,-0.4501 -1.20014,-1.30024 -1.65034,-2.55052c-0.50011,-1.40031 -0.75016,-2.75058 -0.75016,-4.05081l0.75016,-4.65092l2.25046,-4.72594c1.30022,-2.05016 2.55047,-3.60073 3.75072,-4.65094l3.30068,-2.10042l5.25103,0.22504l2.47551,1.35027c0.40003,-0.69989 1.25021,-1.40053 2.55048,-2.10042c2.20045,-1.25051 4.15085,-1.4253 5.85115,-0.52511l1.9504,1.35027l3.15065,3.37567l2.92561,6.60131c1.50047,3.80079 1.95034,6.60133 1.35022,8.40169c-0.65013,1.75033 -1.32527,2.80054 -2.02536,3.15062l-1.20025,0.37508l-0.29995,-0.14997M219.24447,165.55536c3.50073,2.00042 8.57666,2.97548 15.22804,2.92558c6.65132,-0.05004 11.77732,-1.20025 15.37806,-3.45069c3.60069,-2.25044 6.20123,-4.27585 7.80156,-6.07621l0.60012,1.35027v0.075l0.60007,1.20023v0.075c1.65034,3.25062 5.02604,8.55171 10.12704,15.90317l3.75077,5.55111c2.9006,4.4509 5.05099,8.17663 6.45128,11.17723c3.10059,6.40126 4.65091,12.62749 4.65091,18.67872c0,10.65212 -2.57548,19.80395 -7.72654,27.45549l-4.50088,5.5511l-33.08161,1.5003l-40.73314,-1.80036c-1.95035,-2.00042 -3.65075,-4.10084 -5.101,-6.30126c-3.95081,-6.15123 -5.92617,-13.12761 -5.92617,-20.92918c0.05001,-8.10161 4.52588,-19.87895 13.42767,-35.33204l1.50031,-2.5505c5.15106,-8.70174 8.55171,-14.75297 10.20205,-18.15362v-0.075l0.67508,-1.50031c0.95025,1.10025 3.17566,2.67557 6.67638,4.72596" fill="#ffffff" fill-rule="evenodd" stroke-width="5.54438"/><path d="M306.86185,288.35483l1.05022,-0.97519l0.2251,-0.075l-1.27526,1.05021" fill="#006600" fill-rule="evenodd" stroke-width="5.54438"/><path d="M158.85166,174.77292c3.80078,-6.45129 9.40189,-13.10263 16.80336,-19.95397c4.70097,-4.30083 9.30187,-9.4269 13.80274,-15.37807c2.1505,-4.85099 3.92581,-9.25182 5.3261,-13.20263l0.60012,-1.80036c3.75072,-11.25224 6.80135,-19.60365 9.15184,-25.05499c4.75087,-11.00245 9.97695,-19.20383 15.67807,-24.60491c5.40112,-5.10102 11.22727,-7.6761 17.4785,-7.72655c5.25103,0.05026 10.30202,2.62553 15.15302,7.72655c4.55094,4.85121 8.92679,11.97764 13.12766,21.37926c2.7005,6.10096 5.92617,14.60293 9.67689,25.50508l1.57532,4.57592l4.20082,12.0774l0.0748,0.15009l0.15026,0.30006l0.2251,0.22505l2.02536,2.32547l23.77975,29.25583l9.60193,12.5275l0.29995,0.45009l-0.37536,-0.45009l-25.20504,-26.55529c-7.95153,-8.25165 -12.75252,-14.27783 -14.40286,-18.07861c-1.70035,-3.75075 -4.05078,-10.45206 -7.0514,-20.10401c-3.05063,-9.65196 -7.0264,-19.65391 -11.92736,-30.00598c-4.95102,-10.40232 -12.65256,-15.42831 -23.1046,-15.07801c-10.50212,0.35032 -18.7037,6.82636 -24.60492,19.42888c-5.95118,12.55225 -11.22727,26.2052 -15.82816,40.95817c-1.25026,4.95099 -3.92576,9.72697 -8.0266,14.32786c-4.15081,4.55093 -7.95159,8.55171 -11.40225,12.0024l-14.55295,15.37806c-2.60076,2.85056 -4.87595,5.25104 -6.82635,7.20144l4.57594,-7.80157" fill="#40b240" fill-rule="evenodd" stroke-width="5.54438"/><path d="M213.62995,147.71694l0.22511,0.14997l-0.15026,0.4501c-0.15003,2.95056 -1.05021,6.4263 -2.70056,10.42707c-1.7503,-2.5505 -2.62554,-4.70096 -2.62554,-6.45128c0,-1.80035 0.25005,-3.37567 0.75016,-4.72594l1.20025,-3.75075c0.90018,1.45027 2.00041,2.75057 3.30068,3.90078M196.97685,247.9369l2.4005,2.10042l4.80093,3.15063l0.1497,0.15003l6.60137,2.92558l6.67632,2.17544h-0.67514l-8.10162,-0.52511l-9.60193,-0.75015l-2.17539,-0.22505l-11.4023,-1.27525l-0.67514,-0.075l-1.50031,-0.15003h-0.0748l-0.75015,-0.075c-9.00181,-1.0502 -15.70314,-3.87579 -20.10399,-8.47669c-2.10044,-2.15045 -3.67576,-4.70096 -4.72598,-7.65152l-0.67514,-2.10043c-0.90007,-3.05063 -1.35028,-6.02617 -1.35028,-8.92676c-0.05023,-3.15064 0.42537,-6.20127 1.4253,-9.15184c0.65041,-1.85038 1.50031,-3.67573 2.55052,-5.47608l2.47552,-4.4259l0.29995,-0.45009l-0.90019,2.62552c-1.5506,5.00102 -2.32548,8.02661 -2.32548,9.0768c0,6.65137 3.55068,12.40246 10.65215,17.25346c2.15044,1.45026 4.57589,2.80053 7.27644,4.0508l8.55172,2.10042l8.62667,1.42529l2.55052,2.70053M171.09689,187.02467c-1.9504,4.35088 -3.57574,7.67651 -4.87595,9.977l-0.75015,1.42528l-4.42586,7.72654l-0.52506,0.30006l-10.12703,5.40109l-3.15065,1.65033l-12.00237,5.85117h-0.15026l0.22511,-1.12523l0.29995,-0.75015l2.10043,-5.62612l1.87533,0.15009c3.10037,0 6.82636,-1.65033 11.17726,-4.95098c2.55052,-1.90037 5.32604,-4.37586 8.32666,-7.4265l3.37564,-3.60071c3.95082,-4.35086 7.15143,-8.10161 9.60193,-11.25224l-0.9752,2.25044M335.67989,211.92966l0.3748,0.60012h-1.50025c-6.25102,-0.95022 -11.35202,-2.07544 -15.30305,-3.37568c-2.25047,-0.75014 -4.2511,-1.70036 -6.00124,-2.85056c-1.40051,-0.90019 -2.65027,-1.90036 -3.75072,-3.0006l-3.3757,-3.9758l-0.67514,-0.90017l-2.47546,-3.97579c-1.80037,-3.25063 -3.55067,-7.05142 -5.25108,-11.40228l-0.0749,-0.22505l-0.75015,-2.0254l1.57532,2.25044c2.9006,4.05081 6.62631,8.30169 11.1772,12.75256l2.17545,2.0254l1.80037,1.65032c7.00111,6.05123 13.05259,9.07681 18.15364,9.07681l1.87533,-0.45009l2.02542,3.82575M310.32516,230.90847c-1.85038,9.75194 -6.87642,16.72833 -15.07801,20.92917c-2.20045,1.05021 -5.126,2.07544 -8.77675,3.07561l-0.67514,0.15003l-0.0748,0.075h-0.15026l-12.90255,2.0254l-17.55352,0.90018l5.3261,-1.80036c2.25041,-0.95021 4.30084,-2.00042 6.15122,-3.15063l0.1497,-0.075l2.02542,-1.42529l1.72535,-1.5003l4.57589,-4.57591c5.25109,-0.75015 9.72696,-1.67531 13.42767,-2.77556c12.15245,-3.65075 19.65395,-9.75194 22.50453,-18.30364l-0.67514,6.45128M257.2144,146.96673l-0.0749,-0.4501l1.57533,-1.57531l1.20025,-1.42528c0.90007,1.8504 1.35027,3.77573 1.35027,5.77615c0,2.70054 -0.70014,5.20101 -2.10043,7.50149c-1.30021,-3.50072 -1.9504,-6.77632 -1.9504,-9.82695" fill="#007a00" fill-rule="evenodd" stroke-width="5.54438"/><path d="M142.43124,202.52536c1.32154,-2.61089 2.58509,-4.74735 10.6086,-17.93751c0.92565,-1.52171 1.43903,-2.17493 2.81394,-3.58045c0.92494,-0.94554 2.48493,-2.58507 3.46664,-3.6434c3.1891,-3.43799 15.1506,-16.0498 18.97109,-20.00249c4.67248,-4.83416 8.97015,-9.47975 10.32127,-11.15686c2.65585,-3.29664 4.83955,-7.25332 5.98454,-10.84351c2.49398,-7.82006 3.13699,-9.77578 4.34551,-13.21689c4.79418,-13.6508 11.2805,-28.85645 14.72339,-34.51554c4.71298,-7.74676 10.55981,-12.30049 17.77663,-13.84513c1.40015,-0.29968 1.92056,-0.33299 5.13839,-0.32885c3.15309,0.0041 3.75392,0.04248 5.03379,0.32197c4.4029,0.96144 7.77381,2.7791 10.94808,5.90341c2.71551,2.67277 4.59922,5.568 6.94202,10.66974c4.98194,10.84878 8.03156,18.74448 11.81004,30.57705c3.35164,10.49589 5.57496,16.51737 7.08703,19.19406c1.51538,2.68253 4.56276,6.62352 8.5251,11.02494c1.75105,1.94509 1.53078,1.71168 16.89479,17.90304c5.78959,6.10136 11.14255,11.74307 11.89548,12.53714c2.39655,2.52754 9.37794,12.5356 13.85745,19.86514l1.02847,1.68281h-6.18125h-6.18124l-1.08689,-0.81293c-3.95959,-2.96158 -10.03643,-8.79152 -14.23025,-13.65208c-1.49114,-1.72821 -3.39461,-4.14838 -4.67895,-5.94909c-1.08117,-1.51584 -1.26716,-1.87927 -1.9662,-3.84192l-0.77207,-2.1677l0.0705,2.07666c0.084,2.47303 0.42872,4.11679 1.57835,7.52658c2.13005,6.31775 5.20997,12.67232 7.72813,15.94484l0.67523,0.87753l-10.34467,-0.0368l-10.34467,-0.0367l-0.10601,-0.35805c-1.25953,-4.25433 -2.28362,-6.90338 -3.97815,-10.29041c-2.7347,-5.46614 -4.82699,-8.81507 -12.04801,-19.28411c-4.23231,-6.136 -8.00869,-12.50743 -9.10103,-15.3551l-0.39637,-1.0333l0.50769,-1.04336c1.08465,-2.22906 1.45252,-3.85241 1.4535,-6.41404c0.00071,-2.02855 -0.24959,-3.38318 -0.91006,-4.92398l-0.28972,-0.6759l0.77561,-1.28657c1.18193,-1.96056 1.67332,-3.74909 1.70838,-6.21799c0.0171,-1.20072 -0.0136,-1.34779 -0.44816,-2.14827c-0.92996,-1.71311 -2.28698,-3.08302 -8.46186,-8.54221l-0.47847,-0.42301l0.65381,-0.69897c2.25538,-2.41119 3.39798,-5.86615 2.96813,-8.97499c-0.37525,-2.71405 -1.84792,-6.05399 -4.27945,-9.70561c-3.53738,-5.31235 -6.6967,-8.2469 -9.72888,-9.03668c-0.45033,-0.11729 -1.4243,-0.21326 -2.16439,-0.21326c-2.24861,0 -3.89036,0.58498 -5.24961,1.8705l-0.73553,0.69564l-0.44566,-0.27102c-1.09859,-0.66809 -4.46354,-1.28356 -5.91143,-1.08124c-2.3262,0.32506 -4.89676,1.87036 -7.83742,4.71149c-5.34519,5.16429 -7.65048,9.96366 -7.67907,15.98699c-0.0126,2.64307 0.61332,4.60279 2.0996,6.57423l0.69141,0.91712l-1.2178,1.23115c-2.6902,2.71968 -4.95451,5.36534 -5.46637,6.38701c-1.48962,2.97326 -1.12085,6.49953 1.01918,9.74551l0.47652,0.72278l-0.77732,2.42802c-0.94267,2.94449 -1.12526,3.99704 -1.04514,6.0248c0.0537,1.35832 0.12437,1.7148 0.54908,2.76862c0.26812,0.66527 0.81808,1.73614 1.22213,2.37972c0.69195,1.10215 0.72315,1.19206 0.53699,1.54738c-0.10871,0.20748 -0.16185,0.37723 -0.11808,0.37723c0.13254,0 -2.96148,6.04205 -4.63868,9.05849c-1.84601,3.32003 -4.14003,7.26478 -6.43394,11.06364c-3.34555,5.54043 -5.41237,9.30768 -7.70148,14.03766c-1.31685,2.72102 -3.10822,6.81586 -3.77386,8.62659l-0.32905,0.89511h-11.06165h-11.06165l2.84178,-5.69291c3.52457,-7.06077 4.32029,-9.18938 5.0626,-13.54288c0.19893,-1.16668 0.35678,-2.55232 0.35077,-3.07919l-0.0109,-0.95794l-0.54183,1.5754c-1.10536,3.21387 -1.41595,3.68526 -5.80345,8.8079c-3.40818,3.97925 -5.7875,6.57864 -9.01261,9.84624l-3.00381,3.04338h-6.70833h-6.70834z" fill="#009900" fill-rule="nonzero" stroke-width="0.14322"/><path d="M229.84324,168.18051c-3.17295,-0.24586 -5.79397,-0.78605 -8.22235,-1.69462c-1.62597,-0.60836 -5.71137,-3.04203 -7.82897,-4.66373l-1.15664,-0.88578l0.9254,-2.31295c1.02596,-2.56431 2.39042,-7.09104 2.39042,-7.9305c0,-0.67763 0.14416,-0.67548 1.26761,0.0188c3.51439,2.17202 11.42636,4.01798 17.20751,4.01474c7.65353,-0.004 13.0857,-1.57932 18.77716,-5.44432l1.70301,-1.15649v0.85125c0,1.32422 0.78555,4.74017 1.71299,7.44892l0.84314,2.46253l-1.58402,1.50952c-1.9174,1.82724 -6.18917,4.74053 -8.35648,5.69902c-2.34771,1.03827 -5.87711,1.79049 -9.8506,2.09945c-3.8735,0.3012 -3.73243,0.30148 -7.82818,-0.0159z" fill="#a8aab8" fill-rule="nonzero" stroke-width="0.28644"/><path d="M224.25774,257.9525c-6.9004,-1.22069 -11.53365,-2.60766 -15.56149,-4.65835c-3.44495,-1.75393 -6.97762,-4.10465 -9.07201,-6.0367l-1.57539,-1.4533l3.86688,0.15869c2.12679,0.0873 6.50926,0.28059 9.73883,0.42958c27.95003,1.28946 25.95162,1.25934 40.38747,0.60871c7.32561,-0.33018 14.67269,-0.67195 16.32686,-0.75951l3.00758,-0.15919l-1.14575,1.05207c-5.81256,5.33729 -10.44986,7.96905 -17.75903,10.07858l-2.57793,0.74402l-12.45996,0.061c-6.85298,0.0336 -12.78221,0.004 -13.17606,-0.0656z" fill="#a8aab8" fill-rule="nonzero" stroke-width="0.28644"/><path d="M237.63601,64.75033c6.40126,-0.05026 12.45317,3.27742 18.1543,9.97852c4.25088,4.95098 8.3016,11.7768 12.15234,20.47851c2.75062,6.10097 6.00123,14.65209 9.75195,25.6543l0.15039,0.45117l5.10157,15.37695l0.15039,0.52539l5.55078,6.22657c4.35084,4.85099 10.12668,11.85207 17.32812,21.0039l14.10352,18.60352c5.05077,7.10143 9.37587,13.6027 12.97656,19.50391l2.02539,3.52539l2.92578,5.32617l0.67578,1.27539l0.0742,0.67578l-0.30078,0.67578l-0.375,0.22461l-0.15039,0.22461l-0.82422,0.30078h-2.70117h-0.15039c-6.45128,-0.95021 -11.37692,-1.95174 -14.77734,-3.00195l-4.57618,-1.72461l-3.82617,-1.875c1.50031,4.20084 2.25,8.7514 2.25,13.65234l-0.14844,4.35156c-0.99992,13.30263 -6.65305,22.52863 -16.95507,27.67969c-1.25026,0.60011 -2.72543,1.20066 -4.42578,1.80078l-1.04883,0.375l-1.72461,0.52539l0.006,0.002l-5.11328,1.23633l-1.8711,0.4121c-7.5515,1.40053 -17.60181,2.09961 -30.15429,2.09961l-3.67579,0.0762h-0.22656l-2.77929,0.1582h-6.7754l-0.12109,-0.01h-0.15039h-5.47656v0.01h-2.25v-0.01h-0.375h-2.85156h-0.67383h-0.15039l-29.55664,-1.34961h-0.0742l-19.28516,-2.36523l-1.79297,-0.41016c-10.40209,-2.60054 -17.17943,-8.4025 -20.33008,-17.40429c-0.80039,-2.30048 -1.35044,-4.62415 -1.65039,-6.97461c-0.35041,-2.60054 -0.35041,-5.20219 0,-7.80274l0.82618,-3.97461c0.90019,-3.50073 2.39957,-7.00319 4.5,-10.5039l-8.70118,4.65234l-2.02539,1.125c-5.70112,2.90059 -10.37637,5.12545 -14.02734,6.67578l-0.30078,0.0762l-0.15039,0.14844l-0.82422,0.15039c-0.30034,-0.10002 -0.52552,-0.27534 -0.67578,-0.52539l-0.15039,-0.82422l0.90039,-3.45117l0.0742,-0.0742v-0.15039c1.1005,-3.35069 2.65165,-7.10114 4.65234,-11.25195l4.72461,-8.92774v-0.0742l6.37695,-10.42774l2.32617,-3.82617l5.625,-9.45117c3.9008,-6.60132 9.65239,-13.42711 17.25391,-20.47852c5.20102,-4.80095 9.276,-9.17808 12.22656,-13.1289l0.15039,-0.0742v-0.0762l1.87696,-2.69921v-0.0762l0.52343,-1.34961h0.0762l3.44921,-9.52734l0.82618,-2.55078v0.07617c3.75077,-11.30228 6.80191,-19.73014 9.15234,-25.28125c4.40091,-10.25228 9.25163,-18.15203 14.55273,-23.70312c6.30124,-6.70109 13.20163,-10.02874 20.70313,-9.97851zM237.63615,67.00189c-6.25124,0.05026 -12.07741,2.62554 -17.47852,7.72656c-5.70113,5.40107 -10.92681,13.6011 -15.67773,24.60352c-2.35043,5.45133 -5.40163,13.80439 -9.15234,25.05664l-0.59961,1.79883c-1.40034,3.95081 -3.17568,8.35214 -5.32618,13.20313c-4.50087,5.95117 -9.10176,11.07807 -13.80273,15.3789c-7.40147,6.85134 -13.0039,13.50184 -16.80469,19.95313l-4.57422,7.80078l-0.30078,0.52539l-9.45117,15.45312l-3.67578,6.82618l-3.07617,6.52734l-2.10156,5.625l-0.29883,0.75195l-0.22461,1.125h0.15039l12.00195,-5.85156l3.15039,-1.65039l10.12696,-5.40039l0.52539,-0.30078l4.42578,-7.72656l0.75,-1.42579c1.30027,-2.30048 2.9246,-5.62568 4.875,-9.97656l0.97656,-2.25l0.75,-1.72656l1.125,-3.22461l-0.22461,2.77539l-0.0762,0.44922l-0.22461,1.5c-0.35007,2.10042 -1.1744,4.65174 -2.47461,7.65234l-0.60156,1.34961c-2.25046,4.80095 -4.95097,10.00239 -8.10157,15.60352l-2.4746,4.42578c-1.05022,1.80035 -1.90037,3.62617 -2.55079,5.47656c-0.99998,2.95057 -1.47568,6.0017 -1.42578,9.15234c0,2.9006 0.45138,5.87516 1.35157,8.92579l0.67382,2.10156c1.05022,2.95056 2.62614,5.49994 4.72657,7.65039c4.40091,4.60089 11.10171,7.42635 20.10351,8.47656l0.75,0.0762h0.0762l1.5,0.15039l0.67383,0.0742l11.40235,1.27539l2.17578,0.22461l9.60156,0.75l8.10156,0.52539h0.23828v0.008h6.15235v0.0254h32.3811l3.58398,-0.48828l-0.002,-0.0195l1.34765,-0.11718l-0.006,-0.0664l12.04102,-0.61719l12.9043,-2.02539h0.14843l0.0762,-0.0742l0.67382,-0.15039c3.65076,-1.00017 6.57695,-2.02596 8.77735,-3.07617c8.20164,-4.20084 13.22778,-11.17774 15.07812,-20.92969l0.67578,-6.45117l0.0742,-2.625c0,-5.70113 -1.07416,-10.92681 -3.22461,-15.67773v0.15039l-3.37695,-4.80078c-1.90033,-2.90062 -3.52472,-5.92751 -4.875,-9.07813l-0.97656,-2.25c-1.05022,-2.65054 -1.82412,-5.02652 -2.32422,-7.12695c-0.4502,-1.65032 -0.7001,-3.09935 -0.75,-4.34961v-2.02539c0.10003,0.65012 0.54945,2.02458 1.34961,4.125l0.75,2.02539l0.0742,0.22461c1.7004,4.35086 3.45158,8.15171 5.25195,11.40234l2.47461,3.97657l0.67578,0.90039l3.375,3.97461c1.1005,1.10023 2.35138,2.10176 3.75195,3.00195c1.75008,1.1502 3.74954,2.09947 6,2.84961c3.95104,1.30024 9.05367,2.42673 15.30469,3.37695h1.5l-0.375,-0.60156l-2.02539,-3.82422l-3.45117,-5.77734c-3.60069,-5.95116 -7.82651,-12.22682 -12.67774,-18.82813l-0.30078,-0.45117l-9.60156,-12.52735l-23.7793,-29.25585l-2.02539,-2.32422l-0.22461,-0.22657l-0.15039,-0.29882l-0.0762,-0.15039l-4.19922,-12.07813l-1.57617,-4.57617c-3.75072,-10.90215 -6.97528,-19.40295 -9.67578,-25.50391c-4.20087,-9.40159 -8.57797,-16.5277 -13.12891,-21.37891c-4.85101,-5.10102 -9.90131,-7.67633 -15.15234,-7.72656zM338.23187,213.65645v0.22461l0.0742,-0.375z" fill="#133618" fill-rule="evenodd" stroke-width="5.54438"/><path d="M257.21711,147.69765c0.07848,2.88101 0.71726,5.95753 1.9336,9.23243l1.125,2.54883l0.59961,1.27539v-0.0742c1.60028,3.25063 4.92758,8.47629 9.97851,15.67773l4.57617,6.82617c2.55052,4.05081 4.47518,7.45256 5.77539,10.20313c3.25062,6.75135 4.875,13.30301 4.875,19.6543c0,10.15201 -2.22491,18.97701 -6.67578,26.47851l-4.34961,6.15234l-4.57617,4.57618l-1.72656,1.5l-2.02539,1.42578l-0.14844,0.0742c-1.85044,1.15021 -3.90187,2.20017 -6.15234,3.15039l-5.22461,1.76562l-1.26758,0.36719l-7.25586,1.62109l-1.37109,0.11328h-19.70118l-8.39453,-1.81445l-6.29492,-2.05273l-6.60156,-2.92578l-0.15039,-0.1504l-4.80078,-3.15039l-2.40039,-2.09961l-2.55078,-2.70117c-1.80031,-2.05039 -3.35018,-4.20072 -4.65039,-6.45117c-3.50073,-6.05123 -5.25196,-12.85277 -5.25196,-20.4043c-0.05007,-8.20161 4.30099,-19.97894 13.05274,-35.33203l2.17578,-3.67578c5.15107,-8.65171 8.52668,-14.65126 10.12695,-18.00195h-0.0742l0.97461,-2.02734h-0.0742l0.30078,-0.59961c1.39859,-3.39059 2.25111,-6.39885 2.57227,-9.03516c0.73443,0.38115 1.47952,0.74131 2.23437,1.08008c-0.55921,2.90175 -1.54347,6.04289 -3.00586,9.45508v0.0762l-0.2246,0.44922l-0.67579,1.5v0.0762c-1.65034,3.40065 -5.05011,9.4506 -10.20117,18.15234l-1.5,2.55078c-8.90179,15.45309 -13.37783,27.23041 -13.42773,35.33203c0,7.80156 1.97497,14.77845 5.92578,20.92969c1.4503,2.20041 3.15115,4.30035 5.10156,6.30078l0.75,0.75c1.55032,1.55033 3.27544,2.9509 5.17578,4.20117l4.05078,2.4004l0.0742,0.0762c2.30047,1.20023 4.8014,2.19982 7.50196,3c3.45066,1.05021 7.20116,1.79991 11.25195,2.25h0.59961h2.92578h1.42578h0.0742h6.60156h0.0742h2.77539l6.75196,-0.15039h0.15039c3.00062,-0.39983 5.85217,-1.09966 8.55273,-2.09961c2.30047,-0.85014 4.49924,-1.90012 6.59961,-3.15039l0.15039,-0.0762l0.67578,-0.44921l5.02539,-3.90039l2.625,-2.55079l4.50196,-5.55078c5.15107,-7.65154 7.72656,-16.80295 7.72656,-27.45507c0,-6.05124 -1.55177,-12.27843 -4.65235,-18.67969c-1.40029,-3.0006 -3.55057,-6.72685 -6.45117,-11.17774l-3.75,-5.55078c-5.101,-7.35146 -8.47661,-12.65172 -10.12695,-15.90234v-0.0762l-0.59961,-1.19922v-0.0762l-0.60156,-1.34961c-1.447,-3.52705 -2.33467,-6.86828 -2.67774,-10.02735c0.76078,-0.41254 1.50915,-0.84763 2.24414,-1.30469z" fill="#5a5c69" fill-rule="evenodd" stroke-width="5.54438"/><path d="M202.29961,122.61779c0,-18.27143 14.55544,-33.08336 32.51048,-33.08336c17.95504,0 32.51049,14.81193 32.51049,33.08336c0,18.27144 -14.55544,33.08336 -32.51049,33.08336c-17.95504,0 -32.51048,-14.81193 -32.51048,-33.08336z" fill="#009900" fill-rule="nonzero" stroke-width="1.25081"/><g fill-rule="nonzero" stroke-width="1"><path d="M216.27334,128.09516c-0.38921,-0.15066 -0.77842,-0.35782 -1.16763,-0.62148c-0.65286,-0.42687 -1.2618,-1.00441 -1.82677,-1.73261v-0.01883c-1.15508,-1.55684 -1.95232,-3.32711 -2.39175,-5.31082c-0.47709,-2.27248 -0.1946,-4.70817 0.84747,-7.30709c0.69054,-1.7075 1.93977,-3.87954 3.74771,-6.51612c1.21785,-1.75772 2.61775,-3.25805 4.1997,-4.50101c1.78283,-1.40618 3.64099,-2.3227 5.57448,-2.74958c1.99626,-0.42687 3.87954,-0.26366 5.64981,0.48965c1.74517,0.74075 3.08857,1.93977 4.0302,3.59705c0.55242,-0.87886 1.27435,-1.63845 2.16576,-2.27876c0.57754,-0.41432 1.04208,-0.70937 1.39362,-0.88514c0.2511,-0.1381 0.49592,-0.23227 0.73448,-0.28249l0.67798,-0.30133c2.27248,-0.8663 4.48218,-0.89769 6.62911,-0.09416c3.07601,1.11741 6.03902,3.77909 8.88904,7.98506c2.72447,4.06786 4.11809,7.76536 4.18086,11.09247c0.02511,1.93349 -0.43315,3.66611 -1.37478,5.19783c-0.82864,1.35595 -1.92094,2.37291 -3.27689,3.05089l-0.01883,0.01884h-0.03767l-0.0565,-0.01884l-0.28249,-0.16949l-0.15066,-0.09417l-0.33899,-0.20716l-0.09417,-0.07533l0.07533,-0.01883l0.54615,0.32015l-0.52732,-0.33899l0.33899,-0.16949l0.37665,-0.33899c1.18018,-0.66542 2.10926,-1.61961 2.78724,-2.86257c0.81608,-1.49406 1.12368,-3.16389 0.9228,-5.0095c-0.32644,-3.16389 -1.65728,-6.44079 -3.99253,-9.83067c-2.5487,-3.69121 -5.11621,-6.1269 -7.70257,-7.30709c-1.1174,-0.50221 -2.23482,-0.77215 -3.35223,-0.80981c-1.07974,-0.06278 -2.10926,0.113 -3.08856,0.52732l-0.13183,0.09416l-0.73448,0.30133c-0.6152,0.33899 -1.30573,0.77214 -2.0716,1.29945l-0.01883,0.01883l-0.30132,0.24483v0.0565l-0.03767,0.07533h-0.07533h-0.03767l-0.75331,0.58382l-0.01883,0.01883l-0.64031,0.73448l-0.01883,0.01883l-0.07533,0.09416l-0.07533,0.09416h-0.01884l-0.03766,0.03767v-0.01883l-0.33899,0.24482l-0.37665,-0.01883v-0.01883h-0.01883l-0.22599,-0.33899l-0.01884,-0.01883c-0.75331,-0.94164 -1.3999,-1.64472 -1.93977,-2.10926c-0.80353,-0.70309 -1.64472,-1.19274 -2.52358,-1.46895c-1.5945,-0.46454 -3.20783,-0.45826 -4.84,0.01883c-1.72006,0.51476 -3.34595,1.38107 -4.87768,2.59892c-1.44384,1.14252 -2.69308,2.48592 -3.74771,4.0302c-1.80794,2.69935 -2.9944,4.72701 -3.55938,6.08297c-1.07974,2.43569 -1.39362,4.68934 -0.94164,6.76094c0.37665,1.75772 0.96675,3.29572 1.77028,4.61401c1.04208,1.63217 2.25364,2.52358 3.63471,2.67424l0.26366,0.05649l0.07533,0.01884l-0.90397,0.79097l-0.01883,0.03767l-0.45199,-0.03767M225.5767,122.27585c-0.20088,0.03767 -0.06905,-0.00628 0.39549,-0.13183l0.13182,-0.03767l-0.52731,0.1695M229.07958,121.20239l0.45199,-0.16949c-0.28877,-0.22599 -0.54614,-0.57754 -0.77214,-1.05463v-0.01883c-0.38921,-0.82864 -0.58381,-1.82049 -0.58381,-2.97557c0,-1.15507 0.1946,-2.14065 0.58381,-2.95674c0.46454,-0.95419 1.02325,-1.41245 1.67611,-1.37479c0.65286,-0.03767 1.21157,0.4206 1.67611,1.37479c0.38921,0.81609 0.58381,1.80166 0.58381,2.95674c0,1.15507 -0.18832,2.14693 -0.56498,2.97557l-0.01883,0.01883l-0.28249,0.50848l1.24296,-0.15066l-1.29945,0.22599v0.01884l-0.37665,0.05649l-0.84748,0.16949l-0.71564,0.18833l-0.13183,0.16949l-0.15066,-0.09416l-0.47082,0.13183M237.29064,120.27959l-0.15066,-0.30132v-0.01883c-0.38921,-0.81609 -0.58382,-1.80794 -0.58382,-2.97557c0,-1.15507 0.19461,-2.14065 0.58382,-2.95674c0.45199,-0.95419 1.00441,-1.41245 1.65728,-1.37479c0.66542,-0.03767 1.2304,0.4206 1.69494,1.37479c0.38921,0.81609 0.58382,1.80166 0.58382,2.95674c0,1.15507 -0.18833,2.14693 -0.56498,2.97557l-0.01883,0.01883l-0.33899,0.60265l-0.45198,-0.07534l-1.67612,-0.30132l-0.73448,0.07533M231.05702,114.46028c-0.18832,-0.17577 -0.39549,-0.26366 -0.62148,-0.26366c-0.23855,0 -0.43943,0.08789 -0.60264,0.26366c-0.18832,0.17577 -0.28249,0.38921 -0.28249,0.64031c0,0.2511 0.09417,0.46454 0.28249,0.64031v0.01884c0.16322,0.17577 0.36409,0.26366 0.60264,0.26366c0.226,0 0.42688,-0.08789 0.60265,-0.26366h0.01883v-0.01884c0.16322,-0.17577 0.24482,-0.38921 0.24482,-0.64031c0,-0.2511 -0.08161,-0.46454 -0.24482,-0.64031M239.41874,114.46028c-0.17577,-0.17577 -0.38293,-0.26366 -0.62148,-0.26366c-0.23855,0 -0.43315,0.08789 -0.58381,0.26366c-0.17577,0.17577 -0.26366,0.38921 -0.26366,0.64031c0,0.2511 0.08789,0.46454 0.26366,0.64031v0.01884c0.17577,0.17577 0.37038,0.26366 0.58381,0.26366c0.23855,0 0.43943,-0.08789 0.60264,-0.26366h0.01883v-0.01884c0.17577,-0.17577 0.26366,-0.38921 0.26366,-0.64031c0,-0.2511 -0.08789,-0.46454 -0.26366,-0.64031" fill="#000000"/><path d="M213.20361,133.33065l4.27502,-2.9379c1.99626,-1.30573 3.92348,-2.44197 5.78164,-3.40872c1.93349,-1.00441 3.9737,-1.8205 6.12063,-2.44826l2.07159,-0.50848c1.88327,-0.40176 3.71005,-0.60265 5.48032,-0.60265c1.12996,0 2.42942,0.14438 3.89837,0.43315c1.25552,0.2511 2.64286,0.6152 4.16203,1.0923c3.20156,1.00441 5.53681,2.05277 7.00576,3.14506l3.14506,2.27876c1.12997,0.81608 2.0151,1.538 2.65541,2.16576c0.94164,0.95419 1.68867,2.09043 2.24109,3.40872l0.30132,1.63845c0.08789,0.80353 0.08161,1.5945 -0.01883,2.37292l-0.26366,-0.80981c-1.02952,-2.72447 -3.64099,-4.96556 -7.83441,-6.72328c-4.74585,-1.99626 -10.28893,-2.9944 -16.62928,-2.9944c-5.29827,0 -10.39566,1.18646 -15.29216,3.55938c-1.51917,0.7282 -2.93791,1.54429 -4.25619,2.44826l-1.54428,1.11113c-0.16322,0 -0.57127,-0.18832 -1.22413,-0.56498c-0.65286,-0.37665 -1.21785,-0.56499 -1.69494,-0.56499c-1.50662,0 -2.72446,0.37665 -3.65354,1.12996c-0.55242,0.42687 -0.96047,0.94792 -1.22413,1.56312c-0.226,0.55242 -0.34527,1.18018 -0.35782,1.88327c-0.20088,-0.65286 -0.30132,-1.28063 -0.30132,-1.88327c0,-0.53987 0.08789,-1.05463 0.26366,-1.54429c0.35154,-1.04208 1.16763,-1.78283 2.44825,-2.22226c1.14252,-0.38921 2.31015,-0.48337 3.50288,-0.28249c0.42687,0.07533 0.70309,-0.09416 0.82864,-0.50848l0.01883,-0.0565l0.09416,-0.1695M208.77792,144.23479l-0.20716,-0.28249l0.18832,0.18832l0.01883,0.09417M209.60656,140.63774c0.17577,-0.32644 0.39549,-0.62776 0.65914,-0.90397l0.0565,0.09417c-0.28877,0.26366 -0.52732,0.53359 -0.71564,0.80981" fill="#ffa720"/><path d="M217.64813,127.30419l-0.07533,-0.01884l-0.26366,-0.05649c-1.38107,-0.15066 -2.59263,-1.04207 -3.63471,-2.67424c-0.80353,-1.31829 -1.39362,-2.85629 -1.77028,-4.61401c-0.45199,-2.0716 -0.1381,-4.32525 0.94164,-6.76094c0.56498,-1.35595 1.75144,-3.38361 3.55938,-6.08297c1.05463,-1.54428 2.30387,-2.88768 3.74771,-4.0302c1.53172,-1.21785 3.15762,-2.08416 4.87768,-2.59892c1.63217,-0.4771 3.2455,-0.48337 4.84,-0.01883c0.87886,0.27621 1.72005,0.76586 2.52358,1.46895c0.53987,0.46454 1.18646,1.16763 1.93977,2.10926l0.01884,0.01883l0.22599,0.33899h0.01883v0.01883l0.37665,0.01883l0.33899,-0.24482v0.01883l0.03766,-0.03767h0.01884l0.07533,-0.09416l0.07533,-0.09416l0.01883,-0.01883l0.64031,-0.73448l0.01883,-0.01883l0.75331,-0.58382h0.03767h0.07533l0.03767,-0.07533v-0.0565l0.30132,-0.24483l0.01883,-0.01883c0.76586,-0.52732 1.4564,-0.96046 2.0716,-1.29945l0.73448,-0.30133l0.13183,-0.09416c0.9793,-0.41432 2.00882,-0.5901 3.08856,-0.52732c1.1174,0.03767 2.23482,0.30761 3.35223,0.80981c2.58636,1.18018 5.15388,3.61588 7.70257,7.30709c2.33526,3.38989 3.6661,6.66678 3.99253,9.83067c0.20088,1.84561 -0.10672,3.51544 -0.9228,5.0095c-0.67798,1.24296 -1.60706,2.19715 -2.78724,2.86257l-0.37665,0.33899l-0.33899,0.16949l-0.82864,-0.56498c-2.03394,-1.29318 -4.50729,-2.4922 -7.42008,-3.59705l-1.50662,-0.52731c-1.19274,-0.37665 -2.38548,-0.67798 -3.57821,-0.90397l-0.11299,-0.01884l-0.50848,-0.09416l0.01883,-0.01884l-0.47081,-0.05649l0.03767,-0.03767l0.45198,0.07534l0.33899,-0.60265l0.01883,-0.01883c0.37665,-0.82864 0.56498,-1.82049 0.56498,-2.97557c0,-1.15507 -0.19461,-2.14065 -0.58382,-2.95674c-0.46454,-0.95419 -1.02952,-1.41245 -1.69494,-1.37479c-0.65286,-0.03767 -1.20529,0.4206 -1.65728,1.37479c-0.38921,0.81609 -0.58382,1.80166 -0.58382,2.95674c0,1.16763 0.19461,2.15948 0.58382,2.97557v0.01883l0.15066,0.30132l-0.43315,-0.03767c-1.30573,-0.06278 -2.56753,-0.03139 -3.78538,0.09417l-1.24296,0.15066l0.28249,-0.50848l0.01883,-0.01883c0.37665,-0.82864 0.56498,-1.82049 0.56498,-2.97557c0,-1.15507 -0.1946,-2.14065 -0.58381,-2.95674c-0.46454,-0.95419 -1.02325,-1.41245 -1.67611,-1.37479c-0.65286,-0.03767 -1.21157,0.4206 -1.67611,1.37479c-0.38921,0.81609 -0.58381,1.80166 -0.58381,2.95674c0,1.15507 0.1946,2.14693 0.58381,2.97557v0.01883c0.226,0.4771 0.48337,0.82864 0.77214,1.05463l-0.45199,0.16949l-1.22412,0.37665l-1.61962,0.48965l-0.13183,0.03766l-0.13182,0.03767c-0.46454,0.12555 -0.59637,0.1695 -0.39549,0.13183c-2.05904,0.85375 -4.04275,1.93977 -5.95113,3.25806l-0.84747,0.71564l0.13183,-0.09416l-0.03767,0.05649l-1.22413,1.0923M239.41874,114.46028c0.17577,0.17577 0.26366,0.38921 0.26366,0.64031c0,0.2511 -0.08789,0.46454 -0.26366,0.64031v0.01884h-0.01883c-0.16322,0.17577 -0.36409,0.26366 -0.60264,0.26366c-0.21344,0 -0.40804,-0.08789 -0.58381,-0.26366v-0.01884c-0.17577,-0.17577 -0.26366,-0.38921 -0.26366,-0.64031c0,-0.2511 0.08789,-0.46454 0.26366,-0.64031c0.15066,-0.17577 0.34526,-0.26366 0.58381,-0.26366c0.23855,0 0.44571,0.08789 0.62148,0.26366M231.05702,114.46028c0.16322,0.17577 0.24482,0.38921 0.24482,0.64031c0,0.2511 -0.08161,0.46454 -0.24482,0.64031v0.01884h-0.01883c-0.17577,0.17577 -0.37665,0.26366 -0.60265,0.26366c-0.23855,0 -0.43943,-0.08789 -0.60264,-0.26366v-0.01884c-0.18832,-0.17577 -0.28249,-0.38921 -0.28249,-0.64031c0,-0.2511 0.09417,-0.46454 0.28249,-0.64031c0.16322,-0.17577 0.36409,-0.26366 0.60264,-0.26366c0.226,0 0.43316,0.08789 0.62148,0.26366" fill="#ffffff"/><path d="M254.95572,126.9087c1.83305,1.35595 3.29573,2.85002 4.38802,4.48219l0.58382,0.9228c1.04208,1.77027 1.63844,3.61588 1.7891,5.53682c0.226,2.41058 -0.27621,4.63284 -1.50661,6.66678l-0.56499,0.90397l-0.24482,0.35782l-0.99813,1.22413c-1.04208,1.18018 -2.2976,2.26621 -3.76654,3.25806l-2.05277,1.28062c-0.6152,0.23855 -1.2869,0.55871 -2.0151,0.96047c-0.27622,0.1381 -0.53359,0.26993 -0.77214,0.39548l-2.46708,0.92281c-5.12249,1.64472 -10.60909,2.19715 -16.45979,1.65727c-3.02579,-0.27622 -5.82558,-0.77841 -8.39939,-1.50661l-1.93977,-0.60265l-1.61961,-0.60265l-0.01883,0.07533l-0.62148,-0.22599l-0.47082,-0.13183l0.01883,-0.1695c-1.10485,-0.47709 -2.15948,-1.01069 -3.16389,-1.60078c-2.03394,-1.2053 -3.76027,-2.44198 -5.179,-3.71005c-2.58636,-2.3227 -4.13692,-4.7584 -4.65168,-7.30709l-0.07533,-0.39548c-0.08788,-0.67798 -0.10044,-1.33085 -0.03766,-1.9586l0.15066,-0.88514c0.28877,-0.99185 0.82236,-1.78283 1.60078,-2.37292c0.84119,-0.62776 1.81422,-1.04835 2.91907,-1.26179l2.71191,-0.07533c0.40177,-0.75331 0.98558,-1.53173 1.75144,-2.33526l0.113,-0.09416v-0.01883h-0.01883l-0.01883,-0.07533l0.03767,-0.07533l0.69681,-0.64031l1.61961,-1.41245l0.45199,0.03767l0.01883,-0.03767l0.90397,-0.79097l1.22413,-1.0923l0.03767,-0.05649l-0.13183,0.09416l0.84747,-0.71564c1.90838,-1.31829 3.89209,-2.40431 5.95113,-3.25806l0.52731,-0.1695l0.13183,-0.03766l1.61962,-0.48965l1.22412,-0.37665l0.47082,-0.13183l0.15066,0.09416l0.13183,-0.16949l0.71564,-0.18833l0.84748,-0.16949l0.37665,-0.05649v-0.01884l1.29945,-0.22599c1.21785,-0.12555 2.47964,-0.15694 3.78538,-0.09417l0.43315,0.03767l0.73448,-0.07533l1.67612,0.30132l-0.03767,0.03767l0.47081,0.05649l-0.01883,0.01884l0.50848,0.09416l0.11299,0.01884c1.19274,0.22599 2.38548,0.52732 3.57822,0.90397l1.50662,0.52731c2.91279,1.10485 5.38615,2.30387 7.42009,3.59705l0.82864,0.56498l0.52732,0.33899l-0.54615,-0.32015l-0.07533,0.01883l0.09417,0.07533l0.33899,0.20716l0.15066,0.09417l0.28249,0.16949l0.0565,0.01884h0.03767l0.01883,-0.01884M260.04056,135.9484c-0.18833,-0.64031 -0.42687,-1.26179 -0.71564,-1.86444c-1.35595,-2.74957 -3.62843,-5.1476 -6.81744,-7.19409c-1.82049,-1.16763 -3.93604,-2.21599 -6.34663,-3.14507c-1.19274,-0.46454 -2.36664,-0.85375 -3.52172,-1.16763c-1.9586,-0.52732 -3.87954,-0.84748 -5.76281,-0.96047c-2.92534,-0.17577 -5.70003,0.15066 -8.32405,0.9793c-0.3641,0.11299 -0.7282,0.23855 -1.0923,0.37665c-3.13879,1.16763 -5.90719,2.71191 -8.30522,4.63284l-3.42755,2.91907c-1.12996,1.01696 -1.97116,1.95233 -2.52358,2.80607l-0.09416,0.1695l-0.01883,0.0565c-0.12555,0.41432 -0.40177,0.58381 -0.82864,0.50848c-1.19274,-0.20088 -2.36037,-0.10672 -3.50288,0.28249c-1.28062,0.43943 -2.09671,1.18018 -2.44825,2.22226c-0.17577,0.48965 -0.26366,1.00441 -0.26366,1.54429c0,0.60264 0.10044,1.23041 0.30132,1.88327l0.09417,0.26366c0.08789,0.32644 0.21344,0.64658 0.37665,0.96046l0.01883,0.01883c0.35154,0.79098 0.81608,1.57566 1.39362,2.35408l0.26366,0.2825l0.03767,0.03767l0.03767,0.03767l0.20716,0.28249c1.55684,1.83305 3.50916,3.45894 5.85697,4.87767c2.38548,1.44384 5.00322,2.58008 7.85324,3.40872c5.7377,1.66984 11.45029,2.20971 17.13777,1.61962c6.40312,-0.67798 11.63861,-2.73702 15.70648,-6.17713l0.64031,-0.52731l0.05649,-0.0565c1.54428,-1.43129 2.67425,-2.88768 3.38989,-4.36919l0.15066,-0.30132l0.50849,-1.50662l0.24482,-1.24296c0.10044,-0.77842 0.10672,-1.56939 0.01883,-2.37292l-0.30132,-1.63845M209.06041,141.63588l-0.03767,-0.07533c-0.10044,-0.56498 -0.06277,-1.10485 0.113,-1.61961c0.18832,-0.55242 0.50221,-1.01068 0.94163,-1.37479c0.52731,-0.41432 1.05464,-0.70937 1.58195,-0.88514c0.65286,-0.20088 1.26179,-0.20716 1.82677,-0.01883c0.1381,0.06277 0.20716,0.16322 0.20716,0.30132c0,0.1381 -0.06905,0.226 -0.20716,0.26366l-1.43129,0.39548c-0.33899,0.08789 -0.61521,0.20717 -0.82864,0.35783l0.09417,0.13182l1.18646,1.73261c0.65286,1.02952 1.18018,1.78283 1.58195,2.25993c1.43129,1.63217 2.88141,2.83119 4.35036,3.59705c0.10044,0.06277 0.12555,0.14438 0.07533,0.24482c-0.05022,0.113 -0.12555,0.15066 -0.22599,0.113c-2.10926,-0.74076 -3.78537,-1.79539 -5.02833,-3.16389c-1.35595,-1.4815 -2.33526,-2.83746 -2.93791,-4.06787l-0.0565,-0.09417c-0.26366,0.27622 -0.48337,0.57754 -0.65914,0.90397c-0.18832,0.28877 -0.32644,0.59637 -0.41432,0.9228l-0.09417,0.07533h-0.03767M187.89245,292.88137l-0.20716,-0.13183l0.37665,0.22599l1.12996,0.67798v0.01883l-1.80794,-0.26365l0.50849,-0.52731" fill="#792c0f"/><path d="M256.02919,147.37985l-0.05649,0.0565c-2.48592,1.68239 -5.24805,2.97557 -8.28639,3.87954c-3.85443,1.15508 -8.40566,1.73261 -13.65371,1.73261c-4.23108,0 -9.23431,-1.13624 -15.00967,-3.40872c-4.90906,-1.93349 -8.33034,-3.76654 -10.26383,-5.49915c-0.03767,-0.18832 -0.0565,-0.37038 -0.0565,-0.54615c0,-0.7282 0.11927,-1.38106 0.35782,-1.9586h0.03767l0.09417,-0.07533c0.08789,-0.32644 0.226,-0.63403 0.41432,-0.9228c0.18832,-0.27622 0.42687,-0.54615 0.71564,-0.80981c0.60264,1.2304 1.58195,2.58636 2.93791,4.06787c1.24296,1.36851 2.91907,2.42314 5.02833,3.16389c0.10044,0.03767 0.17577,0 0.22599,-0.113c0.05022,-0.10044 0.02511,-0.18205 -0.07533,-0.24482c-1.46895,-0.76586 -2.91907,-1.96488 -4.35036,-3.59705c-0.40177,-0.47709 -0.92908,-1.23041 -1.58195,-2.25993l-1.18646,-1.73261c0.94163,-0.56498 1.97116,-0.84747 3.08856,-0.84747c0.41432,0 0.94164,0.09417 1.58195,0.28249l1.50662,0.28249c0.99185,0 2.09043,-0.23855 3.29573,-0.71564l3.71004,-1.54429c3.92976,-1.51917 8.81999,-2.27875 14.67068,-2.27875c4.55751,0 8.26128,0.56498 11.1113,1.69494c4.24364,1.66984 6.36545,4.51985 6.36545,8.55005c0,1.07974 -0.20716,2.02765 -0.62148,2.84374" fill="#d77223"/><path d="M256.02919,147.37985c0.41432,-0.81608 0.62148,-1.764 0.62148,-2.84374c0,-4.0302 -2.12182,-6.88021 -6.36545,-8.55005c-2.85002,-1.12996 -6.55379,-1.69494 -11.1113,-1.69494c-5.8507,0 -10.74092,0.75958 -14.67068,2.27875l-3.71004,1.54429c-1.2053,0.47709 -2.30387,0.71564 -3.29573,0.71564l-1.50662,-0.28249c-0.64031,-0.18832 -1.16763,-0.28249 -1.58195,-0.28249c-1.1174,0 -2.14693,0.28249 -3.08856,0.84747l-0.09417,-0.13182c0.21344,-0.15066 0.48965,-0.26994 0.82864,-0.35783l1.43129,-0.39548c0.1381,-0.03767 0.20716,-0.12556 0.20716,-0.26366c0,-0.1381 -0.06905,-0.23855 -0.20716,-0.30132c-0.56498,-0.18832 -1.17391,-0.18205 -1.82677,0.01883c-0.52731,0.17577 -1.05464,0.47082 -1.58195,0.88514c-0.43943,0.3641 -0.75331,0.82236 -0.94163,1.37479c-0.17577,0.51476 -0.21344,1.05463 -0.113,1.61961l0.03767,0.07533c-0.23855,0.57754 -0.35782,1.2304 -0.35782,1.9586c0,0.17577 0.01883,0.35783 0.0565,0.54615l-0.18832,-0.18832l-0.03767,-0.03767l-0.03767,-0.03767l-0.26366,-0.2825c-0.57754,-0.77842 -1.04208,-1.56311 -1.39362,-2.35408l-0.01883,-0.01883c-0.16322,-0.31388 -0.28877,-0.63403 -0.37665,-0.96046l-0.09417,-0.26366c0.01255,-0.70309 0.13182,-1.33085 0.35782,-1.88327c0.26366,-0.6152 0.67171,-1.13624 1.22413,-1.56312c0.92908,-0.75331 2.14693,-1.12996 3.65354,-1.12996c0.47709,0 1.04208,0.18833 1.69494,0.56499c0.65286,0.37665 1.06091,0.56498 1.22413,0.56498l1.54428,-1.11113c1.31829,-0.90397 2.73702,-1.72006 4.25619,-2.44826c4.8965,-2.37292 9.99389,-3.55938 15.29216,-3.55938c6.34035,0 11.88343,0.99814 16.62928,2.9944c4.19341,1.75772 6.80489,3.99881 7.83441,6.72328l0.26366,0.80981l-0.24482,1.24296l-0.50849,1.50662l-0.15066,0.30132c-0.71564,1.4815 -1.84561,2.9379 -3.38989,4.36919" fill="#f5881d"/><path d="M255.97269,147.43635l-0.64031,0.52731c-4.06787,3.44011 -9.30336,5.49915 -15.70648,6.17713c-5.68748,0.59009 -11.40007,0.05022 -17.13777,-1.61962c-2.85002,-0.82864 -5.46776,-1.96488 -7.85324,-3.40872c-2.34781,-1.41873 -4.30014,-3.04462 -5.85697,-4.87767l-0.01883,-0.09417c1.93349,1.73261 5.35477,3.56566 10.26383,5.49915c5.77536,2.27248 10.77859,3.40872 15.00967,3.40872c5.24805,0 9.79928,-0.57753 13.65371,-1.73261c3.03834,-0.90397 5.80048,-2.19715 8.28639,-3.87954" fill="#d8af60"/><path d="M213.20361,133.33065c0.55242,-0.85375 1.39362,-1.78911 2.52358,-2.80607l3.42755,-2.91907c2.39803,-1.92093 5.16644,-3.46521 8.30522,-4.63284c0.3641,-0.1381 0.7282,-0.26366 1.0923,-0.37665c2.62402,-0.82864 5.39871,-1.15507 8.32405,-0.9793c1.88327,0.11299 3.80421,0.43315 5.76281,0.96047c1.15508,0.31388 2.32898,0.70309 3.52172,1.16763c2.41058,0.92908 4.52613,1.97743 6.34663,3.14507c3.18901,2.04649 5.46148,4.44452 6.81744,7.19409c0.28877,0.60264 0.52732,1.22413 0.71564,1.86444c-0.55243,-1.31829 -1.29946,-2.45453 -2.24109,-3.40872c-0.64031,-0.62776 -1.52544,-1.34967 -2.65541,-2.16576l-3.14506,-2.27876c-1.46895,-1.0923 -3.8042,-2.14065 -7.00576,-3.14506c-1.51917,-0.4771 -2.90652,-0.84119 -4.16203,-1.0923c-1.46895,-0.28877 -2.76841,-0.43315 -3.89837,-0.43315c-1.77027,0 -3.59705,0.20088 -5.48032,0.60265l-2.07159,0.50848c-2.14693,0.62775 -4.18714,1.44385 -6.12063,2.44826c-1.85816,0.96675 -3.78538,2.10299 -5.78164,3.40872l-4.27502,2.9379" fill="#f1e025"/></g><path d="M193.19386,329.40803c-0.75774,-0.68382 -1.33068,-1.33067 -1.7188,-1.94057l1.63563,1.69107l0.33268,0.30495l-0.24951,-0.0555M235.49847,195.9239l-10.53456,0.38811c-0.16634,0.037 -0.26799,-0.02768 -0.30495,-0.19406c-0.05546,-0.16634 -0.00003,-0.26798 0.16633,-0.30494c3.16037,-0.53598 6.69038,-0.78547 10.59002,-0.74851l10.61773,0.60989c0.25875,0.037 0.38812,0.17561 0.38812,0.41584c0,0.24026 -0.12937,0.3604 -0.38812,0.3604l-10.53457,-0.52673" fill="#87899d" fill-rule="nonzero" stroke-width="0.55445"/><path d="M234.8549,247.25983c-1.26032,-0.0523 -6.67396,-0.28658 -12.03032,-0.52057c-5.35635,-0.23398 -13.09012,-0.56941 -17.18616,-0.74541l-7.44733,-0.31998l-1.09975,-1.04539c-3.00217,-2.85375 -6.49644,-8.57658 -8.07127,-13.21891c-1.57564,-4.64476 -2.32782,-9.9544 -2.03757,-14.38333c0.55031,-8.39738 5.51851,-20.45757 15.37333,-37.31837c5.40701,-9.25096 9.03549,-15.76327 9.63927,-17.30034c0.25381,-0.64613 0.54206,-1.17478 0.64055,-1.17478c0.0985,0 0.88455,0.53073 1.74678,1.1794c3.72511,2.80248 7.21101,4.47616 11.15357,5.35514c3.19278,0.71182 13.81445,0.68677 17.19589,-0.0405c4.49422,-0.96668 8.72019,-3.24084 13.22071,-7.11459l1.62005,-1.39444l1.15158,2.36809c1.35585,2.78815 4.77974,8.22914 10.04468,15.96222c8.96393,13.16614 12.12535,19.33384 13.95385,27.223c1.63944,7.0734 1.03059,17.0644 -1.50987,24.77671c-1.71511,5.2067 -3.89992,9.16492 -7.47041,13.53411c-1.96306,2.40219 -2.53954,2.93607 -3.17083,2.93653c-0.42436,0.00029 -6.3141,0.25148 -13.08831,0.55815c-14.641,0.66281 -19.55098,0.81108 -22.62844,0.68331zM246.45555,195.99952c0,-0.52176 -3.54614,-0.77624 -11.171,-0.80166c-7.15584,-0.0239 -10.59825,0.23211 -10.59795,0.78805c0.00014,0.24994 2.76972,0.33829 10.88457,0.34722c8.31372,0.009 10.88438,-0.0697 10.88438,-0.33361z" fill="#f7f7fb" fill-rule="nonzero" stroke-width="0.28644"/></g></g></svg>